<svg xmlns="http://www.w3.org/2000/svg" viewBox="0 0 113.99 130.48"><defs><style>.cls-1{fill:blue;}</style></defs><title>Arrow</title><g id="Layer_2" data-name="Layer 2"><g id="Layer_1-2" data-name="Layer 1"><line class="cls-1" x1="76.31" y1="1.34" x2="0.67" y2="39.17"/><rect x="-3.8" y="18.76" width="84.58" height="3" transform="translate(-5 19.35) rotate(-26.57)"/><line class="cls-1" x1="75.37" y1="1.02" x2="112.64" y2="76.95"/><rect x="92.5" y="-3.3" width="3" height="84.58" transform="translate(-7.56 45.41) rotate(-26.15)"/><line class="cls-1" x1="0.67" y1="39.17" x2="36.24" y2="51.17"/><rect x="16.96" y="26.4" width="3" height="37.54" transform="translate(-30.25 48.22) rotate(-71.36)"/><line class="cls-1" x1="77.38" y1="65.05" x2="112.96" y2="77.05"/><rect x="93.67" y="52.28" width="3" height="37.54" transform="translate(-2.57 138.52) rotate(-71.36)"/><line class="cls-1" x1="36.24" y1="51.17" x2="14.65" y2="115.18"/><rect x="-8.33" y="81.68" width="67.55" height="3" transform="translate(-61.5 80.69) rotate(-71.35)"/><line class="cls-1" x1="77.38" y1="65.05" x2="55.79" y2="129.06"/><rect x="32.81" y="95.55" width="67.55" height="3" transform="translate(-46.66 129.11) rotate(-71.35)"/><line class="cls-1" x1="14.65" y1="115.18" x2="55.79" y2="129.06"/><rect x="33.72" y="100.41" width="3" height="43.42" transform="translate(-91.75 116.46) rotate(-71.36)"/></g></g></svg>