<svg xmlns="http://www.w3.org/2000/svg" viewBox="0 0 232.05 191.37"><defs><style>.cls-1{fill:none;stroke:#000;stroke-linecap:round;stroke-linejoin:round;stroke-width:3px;}</style></defs><title>Beanie</title><g id="Layer_2" data-name="Layer 2"><g id="Layer_1-2" data-name="Layer 1"><path class="cls-1" d="M149.58,110.08c1.22,15.45-10.55,38.26-11.8,48.54"/><path class="cls-1" d="M147,4.24C101.88,9.57,91.65,16,84.25,21.46A165.74,165.74,0,0,0,66.92,36.55c-5.35,5.08-11.46,10.72-35.71,58.92"/><path class="cls-1" d="M203.34,127.08c-1.71,14-4.31,17.25-6.22,21.5s-3.14,9.53-6.47,23.27"/><path class="cls-1" d="M221,185.25c-20,6.22-26.15,4.74-32.58,3.62s-13.11-1.88-20-2.89-13.88-2.3-19.21-2.75-9-.08-13.26-.42a120.9,120.9,0,0,1-13.54-2.31c-4.36-.88-8.16-1.58-12.84-2.15s-10.23-1-18.49-2.64-19.23-4.35-26.8-6.59-11.75-4-17-6-11.55-4.24-19.74-7.22S9.29,149.23,4.43,140.39"/><path class="cls-1" d="M147,4.24C125.25,34.65,104,74.12,99.8,103.64"/><path class="cls-1" d="M57.31,98c-1.82,20.27-8,29.72-9.23,44.82"/><path class="cls-1" d="M224.13,140.11c3.73-27.26,1.37-39.79-.68-50s-3.79-18.17-7.89-27.25S205,43.53,200.29,36.23s-7.59-11.69-11.86-15.16-9.93-6-15.15-7.79-10-2.74-14.39-4.19-8.38-3.37-11.67-4.74A31.46,31.46,0,0,0,138,1.77a72.21,72.21,0,0,0-11.84-.06,131.57,131.57,0,0,0-16,1.93C103.33,4.85,94.31,6.81,87,10.05s-12.8,7.77-17.57,11.3-8.78,6.07-12.93,8.79-8.47,5.64-11.47,9.23-4.68,7.86-8.6,14.73S26.4,70.41,22.66,95.53"/><path class="cls-1" d="M39.68,96.33c-2.52,15.51-6,30.42-3.61,46"/><path class="cls-1" d="M226.57,143.14c-.59,16.78-2.73,22.63-4.68,27s-3.71,7.18-6.44,13.52"/><path class="cls-1" d="M147,4.24c32,26.11,35.12,35,36.05,46.07s-.39,24.29,2.36,69.61"/><path class="cls-1" d="M78,100.26c-4.33,15.41-10.69,22.6-10.78,45.12"/><path class="cls-1" d="M28,95.29C20.8,109,20.6,119.86,16.14,141.35"/><path class="cls-1" d="M159,9.12c20.81,11.68,26.1,16.31,29.37,19.82a38,38,0,0,1,6.15,8.83,116.62,116.62,0,0,1,6.61,13.41c2.95,7,6.83,17.45,9.43,25.34s3.94,13.23,4.6,18.64.68,10.94,4.1,40.38"/><path class="cls-1" d="M147,4.24C177.23,25.5,181,27.8,184.29,30.71A36.44,36.44,0,0,1,192.79,42a45,45,0,0,1,4.86,18.59c.29,7.51-1.22,16.32,9.78,68.22"/><path class="cls-1" d="M94.47,102.75c.89,14.66-3.56,26.69-8.21,46.29"/><path class="cls-1" d="M147,4.24C108.5,31.29,106.51,41.1,103.16,50.71s-8.07,19.05-16.73,50.76"/><path class="cls-1" d="M218.46,184.74c-4.89-1.45-12.74-6-20-9.47A105.91,105.91,0,0,0,179.22,168c-5.19-1.29-8.83-1.43-13.85-2.39S154,162.92,148,161.3s-11.41-3.1-18.42-4.44-15.57-2.52-24.2-4.06-17.34-3.43-26.6-5.25S59.73,144,52.13,143.16s-13-.71-18.18-.89-10.22-.66-15.15-.84S9,141.34,6,140.79,1.79,139,1.55,137.26,2,133.17,3,129.7s2.22-8.1,3.64-12.3,3-8,4.5-11.34,2.8-6.36,5.25-8.21,6-2.57,10.28-2.58,9.16.69,15.89,1.36S57.81,98,66.24,98.85s16.75,2,25.46,3.45,17.83,3.07,26.7,4.36,17.46,2.19,25.15,2.88,14.46,1.15,23.08,3.62,19.09,7,27.93,10.46,16,6,21.89,9.92,10.41,9.06,12.51,13.68,1.77,8.63,1,13.25-2.12,9.84-2.66,13.68-.31,6.29-1.15,8.33S223.34,186.18,218.46,184.74Z"/><path class="cls-1" d="M179.6,117.65a187.44,187.44,0,0,0-6.45,24.87,156.35,156.35,0,0,1-6.65,23.34"/><path class="cls-1" d="M147,4.24c-9.24,24.16-10.77,30.95-13.29,39.25s-6.06,18.12-24.11,61.79"/><path class="cls-1" d="M147,4.24c-35.86,16.92-40.43,19.43-44.74,23A82.48,82.48,0,0,0,90.83,39a37.69,37.69,0,0,0-6.58,10.84C82.67,54,81.51,59.24,65.1,98.73"/><path class="cls-1" d="M147,4.24c-32.76,7.92-39.9,9.49-45.7,12.14A43.58,43.58,0,0,0,87.43,26.54c-3.56,3.8-6.2,7.69-10.33,13.43S67.36,53.3,63,60.76,55.7,75.55,47.41,97.09"/><path class="cls-1" d="M114.29,106c-7.51,17.7-7.5,29.74-10.85,46.4"/><path class="cls-1" d="M147,4.24C145,32.67,145.45,40,144.36,47.71s-3.68,15.82-7.63,61.18"/><path class="cls-1" d="M216.45,133.54c-3.93,12.43-5.35,22.08-12.93,44.27"/><path class="cls-1" d="M147,4.24c11.29,22.47,15.42,25.58,17.48,30.11s2.08,10.48,2.14,17.74.13,15.85-5.4,59.71"/><path class="cls-1" d="M165.9,113c-5,16.63-10,36.8-13.59,49.5"/><path class="cls-1" d="M132.23,108.41c-5.4,19.84-7.06,32.44-9.38,47.27"/><path class="cls-1" d="M194.56,123.62c-5.9,12.21-9,27.53-16.07,44.24"/></g></g></svg>