<svg xmlns="http://www.w3.org/2000/svg" viewBox="0 0 91.8 60.48"><defs><style>.cls-1{fill:none;stroke:#000;stroke-width:3px;}</style></defs><title>Eye Open</title><g id="Layer_2" data-name="Layer 2"><g id="Layer_1-2" data-name="Layer 1"><path class="cls-1" d="M1.15,42.33a63.28,63.28,0,0,1,89.56,0"/><path class="cls-1" d="M90.74,40.41a63.29,63.29,0,0,1-89.56,0"/><circle cx="45.14" cy="42.17" r="6.04"/><line class="cls-1" x1="45.14" y1="23.82" x2="45.14" y2="0.14"/><line class="cls-1" x1="51.98" y1="23.79" x2="54.4" y2="0.17"/><line class="cls-1" x1="57.71" y1="24.47" x2="63.96" y2="1.24"/><line class="cls-1" x1="63.65" y1="26.01" x2="72.07" y2="3.48"/><line class="cls-1" x1="69.49" y1="28.66" x2="80.16" y2="7.1"/><line class="cls-1" x1="74.57" y1="31.83" x2="87.97" y2="11.86"/><line class="cls-1" x1="26.1" y1="26.92" x2="16.76" y2="4.75"/><line class="cls-1" x1="20.37" y1="29.8" x2="8.82" y2="8.7"/><line class="cls-1" x1="15.43" y1="33.18" x2="1.21" y2="13.78"/><line class="cls-1" x1="33.43" y1="25.06" x2="25.44" y2="2.13"/><line class="cls-1" x1="38.65" y1="23.77" x2="35.55" y2="0.2"/></g></g></svg>