<svg xmlns="http://www.w3.org/2000/svg" viewBox="0 0 252.04 150.16"><defs><style>.cls-1{fill:none;stroke:#000;stroke-linecap:round;stroke-linejoin:round;stroke-width:3px;}</style></defs><title>Hanger</title><g id="Layer_2" data-name="Layer 2"><g id="Layer_1-2" data-name="Layer 1"><path class="cls-1" d="M18.34,137.62c10.14-.71,19.62-2.7,30.2-4.73s22.28-4.11,36-6.37,29.43-4.69,42.36-6.73,23.06-3.71,33.56-5.41,21.37-3.46,30.23-4.93S206.36,106.8,212,106s10.07-1.29,18.75-3.27"/><path class="cls-1" d="M110.58,37.11a27.24,27.24,0,0,0-9.82,3.9,24.12,24.12,0,0,0-4.47,3.39,26.18,26.18,0,0,0-3.43,4.51c-1.25,2-2.73,4.53-3.88,6.44s-2,3.16-3.09,5.18-2.55,4.82-4.25,7.82a56.49,56.49,0,0,1-6.12,9c-2.44,2.82-5.33,5.25-10.19,9.31s-11.72,9.77-16.8,13.55-8.39,5.65-14,9.21-13.43,8.82-18.82,13.07A51.64,51.64,0,0,0,5.41,132.79a18.47,18.47,0,0,0-3.61,7.75,16.42,16.42,0,0,0,.16,7.1c.51,1.41,1.4,1.18,2.79.37a83.93,83.93,0,0,0,8.36-6.22c5.06-4,13.29-10.66,26.82-21.36S72.29,95,84.41,85.22,102,70.73,115.13,62.07"/><path class="cls-1" d="M87.13,11.88a60.47,60.47,0,0,1,7.53-7.66,8.25,8.25,0,0,1,3.72-1.94,26.21,26.21,0,0,1,6.18-.78,11.83,11.83,0,0,1,5,1,7.47,7.47,0,0,1,2.76,2.31,19.19,19.19,0,0,1,2,3.17,9.5,9.5,0,0,1,.89,2.77,11.47,11.47,0,0,1,.22,3.17,11.05,11.05,0,0,1-.89,3.08,20.55,20.55,0,0,1-1.67,3.41c-.72,1.14-1.65,2.23-2.28,3.18A9.6,9.6,0,0,0,109.43,26c-.21.67-.29,1.19,0,3.61s.91,6.73,1.16,7.46"/><path class="cls-1" d="M239.8,106c-13.63,2.2-25.44,4.31-37.45,6.4s-24.23,4.15-37.89,6.36-28.78,4.58-38.64,6.06-14.46,2.08-21.3,3.19-15.9,2.72-23.33,3.7-13.24,1.33-23,3-23.37,4.57-46.8,8.44"/><path class="cls-1" d="M115.13,62.07c17.43,5.71,38.26,13,53,18.06s23.5,7.79,29.67,10.15,9.78,4.35,13.36,5.77,7.14,2.29,11.73,3.82,10.21,3.76,14.54,5.32,7.36,2.47,9.35,3,2.93.58,3.37,0,.4-1.87.25-3.31a16.72,16.72,0,0,0-1.05-4.57,13.91,13.91,0,0,0-3-4.37,20.44,20.44,0,0,0-5-3.75c-1.91-1-4-1.62-8.25-2.91S222.38,86,212.35,83s-23.61-7-33.21-10.15a171.71,171.71,0,0,1-18.95-7,36.53,36.53,0,0,1-8.06-4.95c-2.46-1.91-5.52-4.42-8.45-7.15S137.93,48,134,45.35a96,96,0,0,0-12.25-6.63c-3.2-1.51-4.52-2.12-11.15-1.61"/></g></g></svg>