<svg xmlns="http://www.w3.org/2000/svg" viewBox="0 0 929.44 240.98"><defs><style>.cls-1{fill:#fff;stroke:#000;stroke-miterlimit:10;}</style></defs><title>PrettyBoy</title><g id="Layer_2" data-name="Layer 2"><g id="Layer_1-2" data-name="Layer 1"><path d="M129.89,64.49a82.49,82.49,0,0,1-3.38,24.29,63.23,63.23,0,0,1-3,8.08,55.44,55.44,0,0,1-3.47,6.58A50,50,0,0,1,105,119.11q-12.19,8.08-29.07,8.07a212.35,212.35,0,0,1-21.73-1.34v11.7q0,16.19,4.81,22.5t17.8,7.34c1.16,3.72,1.74,9.51,1.74,17.43q-11.83-.76-38.4-.76T0,184.81q0-12.39,1.31-17.43c4.08-.33,7.19-1.22,9.33-2.65s3.56-4,4.38-7.59,1.19-9.14,1.19-16.55V56.17c0-7.25-.36-12.62-1.09-16.06S13,34.26,11.06,32.92,6,30.54,1.74,29.87A76.28,76.28,0,0,1,0,12.44c13.17.51,24.56.76,34.23.76l25-.25q6.12-.27,14.26-.27,30.72,0,43.55,13.78T129.89,64.49Z"/><path d="M202.06,83a28,28,0,0,0-15.82,4.85A42.07,42.07,0,0,0,174,100.76q-2.19,3.75-6.12,15.36c1.15-4.51,2.1-8.63,2.83-12.28a48.72,48.72,0,0,0,1.1-9.21c0-6.73-2.26-11.06-6.8-12.95q-5.72,2.83-17.55,4.94a146,146,0,0,1-20.91,2.16,63.23,63.23,0,0,1-3,8.08,55.44,55.44,0,0,1-3.47,6.58c4.69.27,8.07,1.07,10.24,2.26a8.81,8.81,0,0,1,4.3,5.39,44,44,0,0,1,1,10.76v24.56c0,6.43-.4,11.25-1.19,14.39s-2.25,5.33-4.29,6.58-5.12,2-9.21,2.29c-1,3.5-1.55,8.56-1.55,15.14,8.93-.42,22.4-.67,40.38-.67,16.4,0,28.62.25,36.66.67,0-6.88-.61-11.91-1.77-15.14-5.85-.43-10.42-1.47-13.71-3.08a13.81,13.81,0,0,1-7-7.77c-1.4-3.6-2.1-8.6-2.1-15v-7.47a34.24,34.24,0,0,1,2.31-12.4,29.29,29.29,0,0,1,5.7-9.66c2.26-2.41,4.42-3.63,6.46-3.63,2.56,0,11.37,2.41,14.88,13.38a52.52,52.52,0,0,1,5.67-17.22,45,45,0,0,1,14.56-16.15C216.33,87.23,207.46,83,202.06,83Z"/><path d="M304.86,140.71h-2.22c-24.51,0-52.12.4-65,1.1q4.62,26.1,29,26.12A47.54,47.54,0,0,0,282,165.28a36.92,36.92,0,0,0,12.62-6.8c1.46.89,2.74,2.59,3.84,5.15a22.18,22.18,0,0,1,1.86,7.8A60.91,60.91,0,0,1,280.6,182.5a76.8,76.8,0,0,1-24.78,3.62q-28.29,0-41.9-14.05t-13.63-37.3a67.74,67.74,0,0,1,.83-10.76,52.52,52.52,0,0,1,5.67-17.22,45,45,0,0,1,14.56-16.15,41.21,41.21,0,0,1,3.84-2.38c8-4.39,17.38-6.58,28.23-6.58q14.81,0,25,5.09a35.93,35.93,0,0,1,10.3,7.65,67.23,67.23,0,0,1,6.06,7.47,53.73,53.73,0,0,1,7.84,15.87,46.68,46.68,0,0,1,1.85,11.31C303,134,307.63,137.94,304.86,140.71Z"/><path d="M440.09,178c-3.08,2.34-7.47,4.26-13.17,5.82a67.07,67.07,0,0,1-17.34,2.28c-11.25,0-19.57-2.83-24.9-8.56s-8-15.21-8-28.53V103.84A43.88,43.88,0,0,0,363,101.31s-17.13,1.37-24.17,3.84v40.59c0,9.08.83,15.21,2.44,18.35s4.39,4.69,8.32,4.69a29,29,0,0,0,13.17-3.05c1.92,2.93,3,7,3.29,12.29-3.08,2.34-7.47,4.26-13.17,5.82a67.07,67.07,0,0,1-17.34,2.28c-11.25,0-19.57-2.83-24.9-8.56s-8-15.21-8-28.53v-8.32h2.22c2.77-2.77-1.83-6.67-.37-11.64a46.68,46.68,0,0,0-1.85-11.31V103.84a34,34,0,0,0-7.84-2,67.23,67.23,0,0,0-6.06-7.47,35.93,35.93,0,0,0-10.3-7.65,2.46,2.46,0,0,1,.21-.91h24V59.74a69.2,69.2,0,0,0,16.58-4.39,58.46,58.46,0,0,0,13.5-7.26,8.94,8.94,0,0,1,4.81,4.39c.89,1.92,1.31,5.21,1.31,9.88v23.5h37.82V59.74a69,69,0,0,0,16.58-4.39,59,59,0,0,0,13.51-7.26,9.15,9.15,0,0,1,4.81,4.39c.88,1.92,1.31,5.21,1.31,9.88v23.5H439.2V86c-8.47.15-15.78.36-21.94,0a43.64,43.64,0,0,0,2,14.35,18.72,18.72,0,0,1,5.27,2,59.86,59.86,0,0,0-11.64,2.81v40.59c0,9.08.82,15.21,2.41,18.35s4.39,4.69,8.35,4.69a29,29,0,0,0,13.17-3.05C438.68,168.66,439.78,172.74,440.09,178Z"/><path d="M537.31,85.18a41.27,41.27,0,0,1-2.44,15.15,17.06,17.06,0,0,0-8.44,4.94c-2,2.25-4.27,6.4-6.92,12.4l-32.25,76.8Q479.13,214,472.57,224c-4.38,6.64-8.65,11.15-12.73,13.5a28.21,28.21,0,0,1-14.27,3.5,31.85,31.85,0,0,1-13.29-2.83,24.39,24.39,0,0,1-9.53-7.26,32.19,32.19,0,0,1-.43-5,55.75,55.75,0,0,1,2.62-16.68,68.3,68.3,0,0,0,22.61,3.51q7.45,0,11.95-2.29t8.23-8.23a66.55,66.55,0,0,0,3.5-6.58Q456.34,160,435.7,117.67c-3.08-6.43-5.73-10.76-8-13a15.12,15.12,0,0,0-3.17-2.38,18.72,18.72,0,0,0-5.27-2,43.64,43.64,0,0,1-2-14.35c6.16.33,13.47.12,21.94,0,3-.06,6.16-.09,9.45-.09q21.94,0,35.32-.68a53.7,53.7,0,0,1-.67,8.36,35.92,35.92,0,0,1-1.52,6.79c-3.66.58-6.28,1.4-7.89,2.41a4.91,4.91,0,0,0-2.41,4.39c0,2.5,1.37,6.43,4.14,11.85a316,316,0,0,1,14.27,33.13L502.2,121c2.19-5.57,3.29-9.72,3.29-12.52a6.57,6.57,0,0,0-2.32-5.37,15.43,15.43,0,0,0-6.91-2.74,45.12,45.12,0,0,1-2.2-15.15c6.89.46,14.26.68,22.16.68C523.68,85.86,530.73,85.64,537.31,85.18Z"/><path d="M691.83,134.77c0,10.48-2.44,19.41-7.38,26.85a42.08,42.08,0,0,1-8.32,9.3Q660.46,184,626.67,184.05q-40.83,0-70.22.76c0-7.59.49-13.38,1.52-17.43,4.09-.33,7.16-1.22,9.21-2.65s3.47-4,4.29-7.71,1.19-9.36,1.19-17V56.17c0-7.25-.39-12.62-1.19-16.06s-2.19-5.85-4.17-7.19-5.15-2.38-9.54-3.05a93.71,93.71,0,0,1-1.31-17.43c5.54.51,13.38.76,23.47.76,9.2,0,16.61-.09,22.15-.25l23.26-.27q30.72,0,44.22,9.23t13.5,29.45q0,15.17-9,25.9T648.82,90.79Q674.7,92.31,685,107.92,691.86,118.26,691.83,134.77Z"/><path d="M793.19,132.58c0,2.13-.09,4.17-.24,6.18v0q-1.74,20.67-15.45,33.07-15.69,14.26-42.67,14.26-27.2,0-41.78-13.5a42.21,42.21,0,0,1-8.6-11c4.94-7.44,7.38-16.37,7.38-26.85q0-16.5-6.83-26.85c.3-.61.64-1.19,1-1.77a47.51,47.51,0,0,1,20.64-18.31c8.68-4.12,18.62-6.16,29.71-6.16a87.68,87.68,0,0,1,16,1.37q16.23,3,26.3,12.56Q793.22,109.55,793.19,132.58Z"/><path d="M888.16,83.66q-16.27,0-30.42-.67c0,6,1,11.06,3,15.15,4.24.58,7.37,1.49,9.51,2.74a5.92,5.92,0,0,1,3.14,5.36q0,4.22-4.51,12.53L852,149.92a278.18,278.18,0,0,0-19.59-33.13c-3.81-5.4-5.7-9.36-5.7-11.86,0-1.89,1.09-3.35,3.29-4.39s5.82-1.82,10.85-2.4a29.85,29.85,0,0,0,2.1-6.8,40.93,40.93,0,0,0,.92-8.35q-18.39.69-48.49.67-25.92,0-43.07-.67v.06q16.23,3,26.3,12.56,14.6,13.94,14.57,37c0,2.13-.09,4.17-.24,6.18v0q18.74,29,33.46,54.59A68.6,68.6,0,0,1,821.6,200a28.37,28.37,0,0,1-11.31,8.23c-4.11,1.52-9.6,2.29-16.43,2.29a125.59,125.59,0,0,1-31-3.51,41.23,41.23,0,0,0-3.63,16.67,21.23,21.23,0,0,0,.61,5.06c3,2.93,7.38,5.33,13.11,7.25a57.6,57.6,0,0,0,18.22,2.84,50.56,50.56,0,0,0,19.57-3.51c5.6-2.34,11.43-6.82,17.46-13.5s12.74-16.49,20.18-29.5l44.28-76.8q5.4-9,9.48-12.41t11.61-4.93Q917,92,917.05,83,903.52,83.68,888.16,83.66Z"/><path class="cls-1" d="M549.2,73.3a41.46,41.46,0,0,1-2.44,15.14,17.13,17.13,0,0,0-8.44,4.94c-2,2.26-4.27,6.4-6.92,12.41l-32.25,76.8q-8.13,19.51-14.69,29.5t-12.74,13.5a28.08,28.08,0,0,1-14.26,3.51,31.86,31.86,0,0,1-13.29-2.84,24.58,24.58,0,0,1-9.54-7.25,33.61,33.61,0,0,1-.42-5.06,55.63,55.63,0,0,1,2.62-16.67,68.52,68.52,0,0,0,22.61,3.5q7.46,0,11.95-2.28t8.23-8.23a67.83,67.83,0,0,0,3.5-6.59q-14.89-35.56-35.53-77.89c-3.08-6.43-5.73-10.76-8-13a15.07,15.07,0,0,0-3.17-2.37,18.43,18.43,0,0,0-5.27-2,43.6,43.6,0,0,1-2-14.35c6.15.33,13.47.12,21.94,0,3-.06,6.16-.09,9.45-.09q21.94,0,35.32-.67a53.67,53.67,0,0,1-.67,8.35,36.72,36.72,0,0,1-1.52,6.79,22.38,22.38,0,0,0-7.9,2.41,4.92,4.92,0,0,0-2.4,4.39c0,2.5,1.37,6.43,4.14,11.86a312.69,312.69,0,0,1,14.26,33.12l12.32-31.14c2.19-5.58,3.29-9.72,3.29-12.53a6.58,6.58,0,0,0-2.32-5.36,15.42,15.42,0,0,0-6.92-2.75A45.37,45.37,0,0,1,506,73.3c6.89.45,14.26.67,22.16.67Q539.3,74,549.2,73.3Z"/><path class="cls-1" d="M141.78,52.6a82.82,82.82,0,0,1-3.38,24.29,64.19,64.19,0,0,1-3,8.08,56.14,56.14,0,0,1-3.47,6.58,50.1,50.1,0,0,1-15.06,15.67q-12.21,8.09-29.08,8.07A209.35,209.35,0,0,1,66.08,114v11.71q0,16.18,4.81,22.49c3.23,4.24,9.14,6.67,17.8,7.34,1.16,3.72,1.74,9.51,1.74,17.44q-11.85-.78-38.4-.77t-40.14.77c0-8.26.42-14.08,1.31-17.44,4.08-.33,7.19-1.22,9.32-2.65s3.57-4,4.39-7.59,1.19-9.14,1.19-16.55V44.28q0-10.87-1.1-16.06C26.27,24.78,24.93,22.37,23,21S17.86,18.65,13.62,18A76.83,76.83,0,0,1,11.89.55q19.74.78,34.22.76l25-.24Q77.27.78,85.4.79,116.12.79,129,14.57T141.78,52.6Z"/><path class="cls-1" d="M214,71.1A28,28,0,0,0,198.13,76a42.06,42.06,0,0,0-12.28,12.92q-2.19,3.75-6.13,15.36c1.16-4.51,2.11-8.62,2.84-12.28a48.6,48.6,0,0,0,1.09-9.2c0-6.74-2.25-11.07-6.79-13q-5.72,2.83-17.56,4.94a145.73,145.73,0,0,1-20.9,2.16,64.19,64.19,0,0,1-3,8.08,56.14,56.14,0,0,1-3.47,6.58c4.69.28,8.07,1.07,10.24,2.26a8.82,8.82,0,0,1,4.29,5.39,44,44,0,0,1,1,10.76v24.57c0,6.43-.4,11.24-1.19,14.38s-2.26,5.33-4.3,6.58-5.12,2-9.2,2.29c-1,3.5-1.56,8.56-1.56,15.15q13.4-.65,40.39-.67,24.58,0,36.66.67c0-6.89-.61-11.92-1.77-15.15q-8.78-.65-13.71-3.08a13.75,13.75,0,0,1-7-7.77c-1.4-3.6-2.11-8.59-2.11-15v-7.46A34.3,34.3,0,0,1,186,112a29.12,29.12,0,0,1,5.7-9.66c2.26-2.41,4.42-3.62,6.46-3.62,2.56,0,11.37,2.4,14.87,13.37a53,53,0,0,1,5.67-17.21,45.05,45.05,0,0,1,14.57-16.16C228.21,75.34,219.34,71.1,214,71.1Z"/><path class="cls-1" d="M316.75,128.83h-2.23c-24.5,0-52.11.39-65,1.09q4.6,26.12,29,26.12a47.54,47.54,0,0,0,15.45-2.65,36.84,36.84,0,0,0,12.62-6.8c1.46.89,2.74,2.59,3.84,5.15a22.29,22.29,0,0,1,1.86,7.81,61.18,61.18,0,0,1-19.75,11.06,76.78,76.78,0,0,1-24.78,3.63q-28.29,0-41.91-14.05t-13.62-37.31a69,69,0,0,1,.82-10.76,53,53,0,0,1,5.67-17.21,45.05,45.05,0,0,1,14.57-16.16,41.13,41.13,0,0,1,3.84-2.37c8-4.39,17.37-6.59,28.22-6.59q14.82,0,25,5.09a35.84,35.84,0,0,1,10.31,7.65A69.12,69.12,0,0,1,306.69,90a53.4,53.4,0,0,1,7.83,15.88C315.56,109.41,319.52,126.05,316.75,128.83Z"/><path class="cls-1" d="M452,166.13c-3.07,2.35-7.46,4.27-13.16,5.82a66.66,66.66,0,0,1-17.34,2.29c-11.25,0-19.57-2.84-24.9-8.57s-8-15.21-8-28.52V92c-1.93-.77-10.84-1.81-19.77-1.5-7.4.26-14.86,1.69-18,2.81v40.59q0,13.64,2.44,18.35c1.58,3.14,4.39,4.7,8.32,4.7a29,29,0,0,0,13.16-3.05q2.88,4.38,3.3,12.28c-3.08,2.35-7.47,4.27-13.17,5.82a66.66,66.66,0,0,1-17.34,2.29c-11.25,0-19.57-2.84-24.9-8.57s-8-15.21-8-28.52v-8.32h2.23c2.77-2.78-1.19-19.42-2.23-23V92a34.85,34.85,0,0,0-7.83-2,69.12,69.12,0,0,0-6.06-7.47,35.84,35.84,0,0,0-10.31-7.65,2.53,2.53,0,0,1,.22-.91h24V47.85a68.5,68.5,0,0,0,16.58-4.39,58,58,0,0,0,13.5-7.25,8.89,8.89,0,0,1,4.82,4.39c.88,1.92,1.31,5.21,1.31,9.87V74h37.82V47.85a68.5,68.5,0,0,0,16.58-4.39,58.67,58.67,0,0,0,13.5-7.25,9.14,9.14,0,0,1,4.82,4.39c.88,1.92,1.31,5.21,1.31,9.87V74h26.33v.09c-8.47.15-15.79.36-21.94,0a43.6,43.6,0,0,0,2,14.35,18.43,18.43,0,0,1,5.27,2,59,59,0,0,0-11.64,2.8v40.59c0,9.09.82,15.21,2.41,18.35s4.38,4.7,8.35,4.7a29,29,0,0,0,13.16-3.05Q451.52,158.23,452,166.13Z"/><path class="cls-1" d="M703.71,122.88c0,10.49-2.43,19.42-7.37,26.85A41.89,41.89,0,0,1,688,159q-15.69,13.13-49.47,13.13-40.81,0-70.22.77c0-7.59.49-13.38,1.53-17.44,4.08-.33,7.16-1.22,9.2-2.65s3.48-4,4.3-7.71,1.19-9.35,1.19-16.94V44.28q0-10.87-1.19-16.06c-.82-3.44-2.19-5.85-4.18-7.19S574,18.65,569.65,18A93.59,93.59,0,0,1,568.33.55q8.32.78,23.47.76c9.21,0,16.61-.09,22.16-.24L637.21.79q30.72,0,44.22,9.24t13.51,29.44q0,15.18-9,25.9T660.71,78.91q25.88,1.5,36.18,17.12C701.46,102.92,703.71,111.88,703.71,122.88Z"/><path class="cls-1" d="M805.08,120.69c0,2.13-.09,4.17-.24,6.19v0Q803.1,147.57,789.38,160q-15.68,14.26-42.66,14.27-27.21,0-41.79-13.5a42,42,0,0,1-8.59-11c4.94-7.43,7.37-16.36,7.37-26.85,0-11-2.25-20-6.82-26.85a19,19,0,0,1,1-1.76A47.47,47.47,0,0,1,718.53,76c8.68-4.12,18.62-6.16,29.71-6.16a87.76,87.76,0,0,1,16,1.37q16.23,3,26.3,12.56Q805.09,97.67,805.08,120.69Z"/><path class="cls-1" d="M900.05,71.77q-16.27,0-30.42-.67c0,6,1,11.07,3,15.15,4.23.58,7.37,1.49,9.51,2.74a5.92,5.92,0,0,1,3.14,5.37q0,4.2-4.52,12.52L863.9,138a277.79,277.79,0,0,0-19.6-33.13c-3.81-5.39-5.7-9.35-5.7-11.85,0-1.89,1.1-3.36,3.3-4.39s5.82-1.83,10.85-2.41a29.85,29.85,0,0,0,2.1-6.8,40.82,40.82,0,0,0,.91-8.35q-18.37.69-48.49.67-25.92,0-43.06-.67v.06q16.23,3,26.3,12.56,14.58,13.95,14.57,37c0,2.13-.09,4.17-.24,6.19v0q18.74,29,33.46,54.58a68.75,68.75,0,0,1-4.82,6.58,28.17,28.17,0,0,1-11.3,8.23q-6.18,2.3-16.43,2.29a125.73,125.73,0,0,1-31-3.51,41.41,41.41,0,0,0-3.62,16.67,21.17,21.17,0,0,0,.61,5.06q4.51,4.4,13.1,7.26a57.66,57.66,0,0,0,18.23,2.83,50.69,50.69,0,0,0,19.56-3.5c5.61-2.35,11.43-6.83,17.47-13.51s12.74-16.48,20.17-29.5l44.29-76.8c3.59-6,6.76-10.15,9.48-12.4s6.58-3.9,11.61-4.94q3.29-6.12,3.29-15.15Q915.41,71.79,900.05,71.77Z"/></g></g></svg>