<svg id="Layer_1" data-name="Layer 1" xmlns="http://www.w3.org/2000/svg" viewBox="0 0 282.927 347.877"><defs><style>.cls-1{fill:#fdfeff;}.cls-2,.cls-5{fill:#f2d3a5;}.cls-3,.cls-4{fill:#e5bf88;}.cls-12,.cls-13,.cls-15,.cls-4,.cls-5{stroke:#9e7943;}.cls-12,.cls-13,.cls-14,.cls-15,.cls-4,.cls-5,.cls-6,.cls-7{stroke-miterlimit:10;}.cls-13,.cls-4,.cls-5{stroke-width:6px;}.cls-12,.cls-13,.cls-15,.cls-6,.cls-7{fill:none;}.cls-6{stroke:#1e1e1d;}.cls-15,.cls-6{stroke-width:9px;}.cls-7{stroke:#af8254;stroke-width:4px;}.cls-8{fill:#644823;}.cls-9{fill:#ba9a70;}.cls-10{fill:#1e1e1d;}.cls-11{fill:#e2e2e2;}.cls-12,.cls-14{stroke-width:2px;}.cls-14{fill:#c5dde8;stroke:#5a5a5a;}.cls-16{fill:#dae8ed;}</style></defs><title>bensdumbface</title><circle class="cls-1" cx="140.63" cy="194.137" r="111.906"/><path class="cls-2" d="M-1658.946,1196.888l3.559,80.055,75.19,63.476,33.157,7.163v-262.6Z" transform="translate(1687.67 -1002.751)"/><path class="cls-3" d="M-1435.179,1196.888l-3.6,80.055-75.1,67.216-33.157,3.424v-262.6Z" transform="translate(1687.67 -1002.751)"/><path class="cls-2" d="M-1658.946,1196.888V1094.308l111.906-50.051V1197.7Z" transform="translate(1687.67 -1002.751)"/><path class="cls-3" d="M-1435.179,1196.888V1094.308l-111.861-50.051V1197.7Z" transform="translate(1687.67 -1002.751)"/><path class="cls-4" d="M-1435.63,1163.19c4.775-4.055,10.136-6.667,14.371-7.028,13.515-1.171,16.8,12.164,10.272,30.589-5.451,15.407.18,24.733-7.478,31.49-6.8,5.947-13.02,4.415-17.975-.631" transform="translate(1687.67 -1002.751)"/><path class="cls-5" d="M-1657.82,1162.334c-4.505-3.6-9.416-5.857-13.335-6.172-13.515-1.171-16.8,12.164-10.271,30.589,5.451,15.407-.18,24.733,7.478,31.49,6.127,5.361,11.758,4.64,16.444.766" transform="translate(1687.67 -1002.751)"/><path class="cls-6" d="M-1532.534,1176.616a20.558,20.558,0,0,0-29.058.405" transform="translate(1687.67 -1002.751)"/><path class="cls-7" d="M-1521.586,1220.135a8.96,8.96,0,0,1-8.965,8.965,2.554,2.554,0,0,0-2.162,0,28.642,28.642,0,0,0-4.685,2.388,41.382,41.382,0,0,1-6.487,3.2,17.542,17.542,0,0,1-3.2.676" transform="translate(1687.67 -1002.751)"/><path class="cls-7" d="M-1572.539,1220.135a8.96,8.96,0,0,0,8.965,8.965,2.554,2.554,0,0,1,2.162,0,28.642,28.642,0,0,1,4.685,2.388,41.382,41.382,0,0,0,6.487,3.2,18.354,18.354,0,0,0,3.2.676" transform="translate(1687.67 -1002.751)"/><path class="cls-8" d="M-1635.52,1146.146c13.38-1.97,4.37-7.522,24.868-12.476s45.321-2.03,44.645-6.865-21.084-8.3-41.582-3.343-31.626,23.222-27.931,22.685h0Z" transform="translate(1687.67 -1002.751)"/><path class="cls-8" d="M-1457.26,1146.146c3.694,0.537-7.433-17.73-27.931-22.685s-40.906-1.492-41.582,3.343,24.147,1.91,44.645,6.865,11.488,10.507,24.868,12.476h0Z" transform="translate(1687.67 -1002.751)"/><path class="cls-9" d="M-1515.595,1316l51.763-38.834a33.64,33.64,0,0,0,11.083-14.551l16.489-41.852-2.568,56.178-65.369,63.837a30.341,30.341,0,0,1-19.056,6.8h-23.832V1299.83Z" transform="translate(1687.67 -1002.751)"/><path class="cls-9" d="M-1547.108,1299.83v47.754h-23.832a30.341,30.341,0,0,1-19.056-6.8l-65.369-63.837-2.568-56.178,16.489,41.852a33.64,33.64,0,0,0,11.083,14.551L-1578.6,1316Z" transform="translate(1687.67 -1002.751)"/><path class="cls-10" d="M-1657.075,1161.441l18.587,7.749-1.075,2.578-18.587-7.749Z" transform="translate(1687.67 -1002.751)"/><path class="cls-10" d="M-1455.786,1167.413l19.389-5.443,0.755,2.689-19.389,5.443Z" transform="translate(1687.67 -1002.751)"/><path class="cls-11" d="M-1621.374,1155.532c17.57-1.261-12.119,37.482,10.182,35.635,15.5-1.306,21.039,5.091,18.651,11.758s-4.46,8.74-25.5,1.126C-1639.124,1196.438-1628.492,1156.027-1621.374,1155.532Z" transform="translate(1687.67 -1002.751)"/><path class="cls-12" d="M-1428.962,1171.435c4.73-5.947,4.1-4.73,8.244-4.91,4.505-.18,6.667,2.568,4.6,7.794-1.261,3.244-5.226,8.92-5.992,15.858-0.766,6.983,2.613,13.29-.36,17.93s-10.136,4.009-10.5,1.352a82.382,82.382,0,0,1,0-9.641" transform="translate(1687.67 -1002.751)"/><path class="cls-12" d="M-1665.163,1171.435c-4.73-5.947-4.1-4.73-8.244-4.91-4.505-.18-6.667,2.568-4.6,7.794,1.261,3.244,5.226,8.92,5.992,15.858,0.766,6.983-2.613,13.29.36,17.93,3.018,4.64,10.136,4.009,10.5,1.352a82.382,82.382,0,0,0,0-9.641" transform="translate(1687.67 -1002.751)"/><path class="cls-11" d="M-1462.57,1171.48c-7.343,3.063-14.326-17.84-23.607-19.732-9.01-1.847-25.273,3.063-25.634-3.739-0.18-3.92,24.372-6.127,31.626-2.7,8.515,4.009,21.94,24.372,17.615,26.175h0Z" transform="translate(1687.67 -1002.751)"/><path class="cls-8" d="M-1521.586,1034.526c34.284-10.5,57.034-10.5,65.774-2.343s29.959,21.579,34.824,44.33,2.523,27.436,2.523,27.436-5.271-11.083-14.011-16.353,2.253-9.326,2.568,12.254c0.36,21.579-5.271,17.48-5.271,29.733l0.045,67.306s-3.2-35.365-7.253-44.555c-4.1-9.19,1.667-15.723-3.244-30.9s-22.39-36.176-32.3-33.833-42.573-5.811-46.087-11.668c-3.514-5.811-11.668-17.48-19.822-9.326s-22.751,27.977-41.4,28.292-29.148-6.713-40.816,5.541-19.237,23.021-22.751,31.626-9.976,69.572-9.976,69.572-0.116-64.436-.116-72-5.271-3.514-8.965-14.6,0.676-38.518,8.965-37.933c8.334,0.586,1.847-13.65,12.93-30s9.776-20.858,19.462-32.527c2.523-3.063,14.011-10.271,16.894-10.9,11.443-2.388,26.039.135,36.356,4.865,12.839,5.9,18.966,7.3,26.22,11.353,7.253,4.145,25.454,14.641,25.454,14.641h0Z" transform="translate(1687.67 -1002.751)"/><path class="cls-8" d="M-1608.8,1087.686c-8.83,9.28-13.877,12.045-11.848,18.291,2.766,8.513,1.786,10.193,1.786,10.193s-9.8-10.464-9.129-16.14-0.676-8.379,4.009-19.687c4.685-11.353,15.182-4.325,15.182-4.325v11.668Z" transform="translate(1687.67 -1002.751)"/><path class="cls-13" d="M-1658,1218.423l2.613,58.521s61.224,60.458,62.35,61.359,0.315,0.27,1.712,1.4,3.108,2.433,3.784,2.883c0.676,0.405,1.667,1.081,2.478,1.487s2.162,1.081,3.018,1.4c0.811,0.315,1.847.676,2.433,0.856,0.631,0.18,2.838.766,3.829,0.9s0.766,0.18,1.892.27c1.171,0.09,2.343.135,3.018,0.135h23.832" transform="translate(1687.67 -1002.751)"/><path class="cls-13" d="M-1436.17,1218.423l-2.613,58.521s-61.224,60.458-62.35,61.359-0.315.27-1.712,1.4-3.108,2.433-3.784,2.883c-0.676.405-1.667,1.081-2.478,1.487s-2.162,1.081-3.018,1.4c-0.811.315-1.847,0.676-2.433,0.856-0.631.18-2.838,0.766-3.829,0.9s-0.766.18-1.892,0.27c-1.171.09-2.343,0.135-3.018,0.135h-23.832" transform="translate(1687.67 -1002.751)"/><circle class="cls-14" cx="193.52" cy="174.27" r="39.059"/><circle class="cls-14" cx="87.786" cy="174.27" r="39.059"/><path class="cls-15" d="M-1501.313,1254.283c0,8.65-11.8,11.984-20.408,11.984h-50.592c-8.65,0-19.687-1.667-19.687-10.271" transform="translate(1687.67 -1002.751)"/><path class="cls-16" d="M-1574.943,1153.8c-0.368,5.86-33.166-.045-40.948,11.517-8.12,12.064-17.4,22.718-18.128,16.893s6.553-31.418,20.544-36.255C-1601.107,1141.675-1574.536,1147.306-1574.943,1153.8Z" transform="translate(1687.67 -1002.751)"/><path class="cls-16" d="M-1589.629,1204.779c-0.673-1.776,9.781-4.407,10.534-8.851,0.786-4.638,2.1-9.014,3.092-7.395s2.256,10.133-1.224,13.423C-1580.3,1204.865-1588.885,1206.746-1589.629,1204.779Z" transform="translate(1687.67 -1002.751)"/><path class="cls-8" d="M-1666.257,1118.837c-1.524,6.491-4.4,7.323-4.83,16.051s-0.5,10.6,1.194,12.469,4.19,3.325,5.645,6.442,4.78,5.535,4.156,10.353,1.272,18.054,1.272,18.054,1.252-13.809,4.146-15.6,4.973-8.222,4.973-10.514-1.205-15.5-.636-18.129,3.338-12.426,3.338-12.426Z" transform="translate(1687.67 -1002.751)"/><path class="cls-8" d="M-1432.725,1115.336c-0.108,5.493,1.875,4.485,2.648,6.5s4.05,9.508,4.953,12.467c2.387,7.825-2.029,15.629-.841,19.5s-2.6,5.178-3.183,12.719-5.986,27.689-5.986,27.689l-4.35-74.442Z" transform="translate(1687.67 -1002.751)"/><path class="cls-16" d="M-1479.072,1205.837c-3.893-1.962,15-23.028,10.127-34.051-3.879-8.773-.417-15.176,3.476-13.214s8.691,20.566,3.267,31.329S-1475.179,1207.8-1479.072,1205.837Z" transform="translate(1687.67 -1002.751)"/></svg>