<svg id="Layer_1" data-name="Layer 1" xmlns="http://www.w3.org/2000/svg" viewBox="0 0 296.216 374.042"><defs><style>.cls-1,.cls-3{fill:#e5bf88;}.cls-2{fill:#d9ad67;}.cls-10,.cls-14,.cls-15,.cls-17,.cls-3,.cls-7,.cls-9{stroke:#9e7943;}.cls-10,.cls-12,.cls-14,.cls-15,.cls-17,.cls-20,.cls-21,.cls-3,.cls-7,.cls-9{stroke-miterlimit:10;}.cls-15,.cls-17,.cls-3{stroke-width:6px;}.cls-4{fill:#bcbbbb;}.cls-5{fill:#eecc8a;}.cls-15,.cls-6{fill:#f2d5af;}.cls-7{fill:#efedee;}.cls-7,.cls-9{stroke-width:4px;}.cls-8{fill:#1b1b1c;}.cls-10,.cls-12,.cls-14,.cls-17,.cls-19,.cls-20,.cls-21,.cls-9{fill:none;}.cls-10,.cls-20,.cls-21{stroke-width:3px;}.cls-11{fill:#d39e9e;}.cls-12{stroke:#a46868;}.cls-13{fill:#fff;}.cls-14{stroke-width:2px;}.cls-16{fill:#644b3e;}.cls-18{fill:#4a362d;}.cls-20{stroke:#ababab;}.cls-21{stroke:#0e0e0e;}</style></defs><title>thecuteone</title><path class="cls-1" d="M-2157.015,1182.165c0.038-6.414-.263-50.715-12.529-72.171-13.241-23.182-104.206-45.8-104.206-45.8l10.991,9.565C-2211.931,1080.1-2170.556,1125.749-2157.015,1182.165Z" transform="translate(2421.385 -996.04)"/><path class="cls-2" d="M-2152.326,1225.078l-0.038.038v0.188Z" transform="translate(2421.385 -996.04)"/><path class="cls-1" d="M-2167.293,1314.654l7.352-43.963a155.494,155.494,0,0,1-25.47,48.464Z" transform="translate(2421.385 -996.04)"/><path class="cls-1" d="M-2152.364,1225.153v-0.188a8.089,8.089,0,0,1-1.313.112c-9.153,0-6.152-7.09-6.152-24.532a53.45,53.45,0,0,1,2.926-17.93l-0.113-.45v0.788l-106.194-108.032h-10.541v292.173a103.52,103.52,0,0,0,17.968-2.138Z" transform="translate(2421.385 -996.04)"/><path class="cls-1" d="M-2218.983,1344.25l-35.861,20.481a114.967,114.967,0,0,0,47.677-23.407l-18.831,12.6Z" transform="translate(2421.385 -996.04)"/><path class="cls-1" d="M-2262.758,1073.759l1.35,1.163h-1.8l106.194,108.032v-0.788C-2170.556,1125.749-2211.931,1080.1-2262.758,1073.759Z" transform="translate(2421.385 -996.04)"/><path class="cls-1" d="M-2254.844,1364.732l35.861-20.481,14.7-20.368,18.868-4.689a155.079,155.079,0,0,0,25.47-48.464l7.615-45.613-103.493,139.841C-2255.481,1364.882-2255.181,1364.807-2254.844,1364.732Z" transform="translate(2421.385 -996.04)"/><path class="cls-3" d="M-2152.364,1224.966c9.3-1.726,24.195-20.593,24.195-37.211,0-17.443-6-18.718-15.117-18.718-5.664,0-10.653,5.4-13.617,13.616" transform="translate(2421.385 -996.04)"/><path class="cls-1" d="M-2153.676,1225.078a7.448,7.448,0,0,0,1.313-.112c0.038-1.088.038-2.176,0.038-3.226a169.444,169.444,0,0,0-4.576-39.087,53.453,53.453,0,0,0-2.926,17.93C-2159.828,1217.988-2162.829,1225.078-2153.676,1225.078Z" transform="translate(2421.385 -996.04)"/><path class="cls-4" d="M-2264.6,1073.534l-9.19-9.34v8.815C-2270.673,1073.046-2267.6,1073.234-2264.6,1073.534Z" transform="translate(2421.385 -996.04)"/><path class="cls-4" d="M-2262.758,1073.759l-10.991-9.565,9.19,9.34Z" transform="translate(2421.385 -996.04)"/><path class="cls-4" d="M-2273.787,1073.008v1.913h10.541l-1.35-1.388C-2267.6,1073.234-2270.673,1073.046-2273.787,1073.008Z" transform="translate(2421.385 -996.04)"/><path class="cls-2" d="M-2262.758,1073.759l-1.8-.225,1.35,1.388h1.8Z" transform="translate(2421.385 -996.04)"/><path class="cls-2" d="M-2207.167,1341.325l39.874-26.67-28.433,16.242A125.232,125.232,0,0,1-2207.167,1341.325Z" transform="translate(2421.385 -996.04)"/><path class="cls-1" d="M-2195.726,1330.934l28.433-16.242-18.155,4.5A137.829,137.829,0,0,1-2195.726,1330.934Z" transform="translate(2421.385 -996.04)"/><path class="cls-1" d="M-2195.726,1330.934l-23.294,13.316-7.015,9.715,18.831-12.6A131.914,131.914,0,0,0-2195.726,1330.934Z" transform="translate(2421.385 -996.04)"/><path class="cls-1" d="M-2185.411,1319.156l-18.868,4.689-14.7,20.368,23.294-13.316A139.5,139.5,0,0,0-2185.411,1319.156Z" transform="translate(2421.385 -996.04)"/><path class="cls-5" d="M-2390.521,1182.165c-0.038-6.414.263-50.715,12.529-72.171,13.429-23.482,47.9-29.971,91.677-42.463,5.289-1.5,9.64-2.626,12.529-3.376l-4.051,3.526-6.94,6.039c-12.079,2.513-41.9,9.3-66.882,35.448C-2370.04,1128.45-2383.769,1153.957-2390.521,1182.165Z" transform="translate(2421.385 -996.04)"/><path class="cls-4" d="M-2395.21,1225.078l0.038,0.038v0.188Z" transform="translate(2421.385 -996.04)"/><path class="cls-6" d="M-2379.579,1314.187l-7.352-43.963a155.5,155.5,0,0,0,25.47,48.464Z" transform="translate(2421.385 -996.04)"/><path class="cls-6" d="M-2394.648,1224.629v-0.188a8.192,8.192,0,0,0,1.35.112c9.153,0,6.152-7.09,6.152-24.532a53.45,53.45,0,0,0-2.926-17.93l0.113-.45v0.788l106.194-108.032h10.541V1366.57a103.52,103.52,0,0,1-17.968-2.138Z" transform="translate(2421.385 -996.04)"/><path class="cls-6" d="M-2327.852,1343.783l35.861,20.481a114.967,114.967,0,0,1-47.677-23.407l18.831,12.6Z" transform="translate(2421.385 -996.04)"/><path class="cls-6" d="M-2284.777,1073.759l-1.35,1.163h1.8l-106.194,108.032v-0.788C-2377.017,1125.749-2335.6,1080.1-2284.777,1073.759Z" transform="translate(2421.385 -996.04)"/><path class="cls-6" d="M-2291.991,1364.264l-35.861-20.481-14.7-20.368-18.868-4.689a155.079,155.079,0,0,1-25.47-48.464l-7.577-45.388v-0.188l103.455,139.8C-2291.353,1364.414-2291.691,1364.339-2291.991,1364.264Z" transform="translate(2421.385 -996.04)"/><path class="cls-4" d="M-2282.977,1073.534l9.19-9.34v8.815C-2276.863,1073.046-2279.939,1073.234-2282.977,1073.534Z" transform="translate(2421.385 -996.04)"/><path class="cls-4" d="M-2273.787,1073.008v1.913h-10.541l1.35-1.388C-2279.939,1073.234-2276.863,1073.046-2273.787,1073.008Z" transform="translate(2421.385 -996.04)"/><path class="cls-4" d="M-2284.777,1073.759l1.8-.225-1.35,1.388h-1.8Z" transform="translate(2421.385 -996.04)"/><path class="cls-5" d="M-2339.705,1340.857l-39.874-26.67,28.433,16.242A130.387,130.387,0,0,0-2339.705,1340.857Z" transform="translate(2421.385 -996.04)"/><path class="cls-6" d="M-2351.146,1330.467l-28.433-16.242,18.155,4.5A144.777,144.777,0,0,0-2351.146,1330.467Z" transform="translate(2421.385 -996.04)"/><path class="cls-6" d="M-2351.146,1330.467l23.294,13.316,7.015,9.715-18.831-12.6A137.618,137.618,0,0,1-2351.146,1330.467Z" transform="translate(2421.385 -996.04)"/><path class="cls-6" d="M-2361.424,1318.688l18.868,4.689,14.7,20.368-23.294-13.316A133.075,133.075,0,0,1-2361.424,1318.688Z" transform="translate(2421.385 -996.04)"/><circle class="cls-7" cx="89.381" cy="177.348" r="23.895"/><circle class="cls-7" cx="207.84" cy="177.348" r="23.895"/><ellipse class="cls-8" cx="150.261" cy="280.165" rx="84.775" ry="52.815"/><path class="cls-9" d="M-2186.349,1276.206c0,29.169-39.458,54.151-86.278,54.151s-83.271-24.982-83.271-54.151" transform="translate(2421.385 -996.04)"/><rect class="cls-8" x="65.486" y="227.387" width="169.55" height="52.815"/><path class="cls-10" d="M-2359.687,1213.262c-6.639,1.913-10.541,8.59-8.7,14.929" transform="translate(2421.385 -996.04)"/><path class="cls-10" d="M-2186.349,1213.262c6.639,1.913,10.541,8.59,8.7,14.929" transform="translate(2421.385 -996.04)"/><path class="cls-9" d="M-2251.055,1208.311a8.669,8.669,0,0,1-8.665,8.665h-28.058a8.669,8.669,0,0,1-8.665-8.665" transform="translate(2421.385 -996.04)"/><path class="cls-4" d="M-2265.759,1062.018" transform="translate(2421.385 -996.04)"/><path class="cls-11" d="M-2300.307,1325.8c-8.74-.975-10.616-2.176-23.332-8.14a68.956,68.956,0,0,1-18.193-12.341,58.69,58.69,0,0,1-7.577-8.853c-4.239-5.964,17.78-12.941,30.5-6.94S-2293.067,1326.62-2300.307,1325.8Z" transform="translate(2421.385 -996.04)"/><path class="cls-11" d="M-2283.164,1328.646c-8.74-.975-11.816.113-24.532-5.889a68.956,68.956,0,0,1-18.193-12.341,58.69,58.69,0,0,1-7.577-8.853,2.747,2.747,0,0,1-.525-1.388c-0.225-3.714,10.2-7.765,19.056-7.84a28.579,28.579,0,0,1,11.966,2.288c16.917,7.315,24.532,31.322,21.006,33.76A1.52,1.52,0,0,1-2283.164,1328.646Z" transform="translate(2421.385 -996.04)"/><path class="cls-4" d="M-2311.073,1295.711" transform="translate(2421.385 -996.04)"/><path class="cls-4" d="M-2303.645,1316.192" transform="translate(2421.385 -996.04)"/><line class="cls-12" x1="106.448" y1="296.333" x2="120.402" y2="320.152"/><rect class="cls-13" x="65.486" y="227.387" width="169.55" height="11.366"/><path class="cls-14" d="M-2147.171,1178.281c2.1-1.771,7.522-1.8,9.693.883a16.864,16.864,0,0,1,3.286,13.107c-0.679,4.407-2.886,7.744-5.169,7.629-8.883-.432-7.538,11.127-10.536,12.258" transform="translate(2421.385 -996.04)"/><path class="cls-15" d="M-2389.651,1182.353c-3-8.215-7.99-13.616-13.617-13.616-9.153,0-15.117,1.313-15.117,18.718,0,16.617,14.892,35.485,24.195,37.211" transform="translate(2421.385 -996.04)"/><path class="cls-6" d="M-2387.007,1200.658a53.612,53.612,0,0,0-2.926-17.93,169.2,169.2,0,0,0-4.576,39.087c0,1.088,0,2.176.038,3.226a8.089,8.089,0,0,0,1.313.112C-2384.007,1225.191-2387.007,1218.064-2387.007,1200.658Z" transform="translate(2421.385 -996.04)"/><path class="cls-14" d="M-2400.686,1212.624c-2.963-1.538-.225-13.466-9.565-14.067-2.4-.15-4.314-3.9-4.5-8.59a17.747,17.747,0,0,1,4.989-13.316c2.588-2.551,8.252-1.838,10.241.225" transform="translate(2421.385 -996.04)"/><path class="cls-16" d="M-2241.04,1151.256c-0.188,1.838,10.053-5.026,35.335-2.288s26.3-3,26.483-4.839-12.491-1.013-37.811-3.751S-2240.815,1149.381-2241.04,1151.256Z" transform="translate(2421.385 -996.04)"/><path class="cls-16" d="M-2328.815,1123.461c-25.282,2.738-39.086,17.405-38.861,19.243s2.251-7.952,27.533-10.691,38.111,10.616,37.924,8.778C-2302.445,1138.953-2303.533,1120.723-2328.815,1123.461Z" transform="translate(2421.385 -996.04)"/><path class="cls-14" d="M-2249.63,1136.965c-6.227,12.941-13.879,34.7-5.627,55.179,0.525,1.275,1.088,2.588,1.763,3.864" transform="translate(2421.385 -996.04)"/><path class="cls-14" d="M-2298.244,1136.965c6.227,12.941,13.879,34.7,5.627,55.179-0.525,1.275-1.088,2.588-1.763,3.864" transform="translate(2421.385 -996.04)"/><path class="cls-4" d="M-2407.326,1226.691l0.038,0.038v0.188Z" transform="translate(2421.385 -996.04)"/><path class="cls-17" d="M-2394.947,1224.666l14.667,90.026,57.109,38.336s6.251,3.473,10.457,5.2a109.578,109.578,0,0,0,10.865,4.064c3.527,1.041,10.251,2.758,12.976,3.213s15.124,1.587,15.124,1.587" transform="translate(2421.385 -996.04)"/><path class="cls-17" d="M-2152.457,1224.5l-14.667,90.026-57.109,38.336s-6.251,3.473-10.457,5.2a109.578,109.578,0,0,1-10.865,4.064c-3.527,1.041-10.251,2.758-12.976,3.213s-15.124,1.587-15.124,1.587" transform="translate(2421.385 -996.04)"/><path class="cls-18" d="M-2390.408,1182.728l2.926,17.93s1.454-47.678,18.638-69.584,23.9-32.1,36.689-38.262,42.7-12.9,53.773-12.288,34.345,3.674,43.531,6.736,27.419,9.186,39.124,18.372,19.7,15.438,23.051,22.723,12.848,72.227,12.848,72.227l2.926-17.93s4.353-53.438,3.41-74.2-11.6-29.231-23.7-39.588c-10.7-9.162-56.22-21.039-66.492-22.876s-56.166-2.685-64.426-.236-29.315,13.133-43.673,18.4c-10.389,3.814-29.088,11.184-39.216,29.866-5.171,9.538-7.363,49.727-6.138,55.471s3.227,25.848,3.227,25.848Z" transform="translate(2421.385 -996.04)"/><ellipse class="cls-18" cx="123.924" cy="36.468" rx="37.685" ry="36.468"/><path class="cls-18" d="M-2325.667,1063.828l-1.625-2.2-2-2.771c-0.729-1.061-1.553-2.25-2.406-3.581s-1.768-2.771-2.684-4.327-1.859-3.206-2.769-4.95a95.03,95.03,0,0,1-5.061-11.21c-0.743-1.955-1.385-3.957-1.947-5.94a57.848,57.848,0,0,1-1.335-5.917,41.618,41.618,0,0,1-.566-5.661,26.956,26.956,0,0,1,.318-5.1,17.508,17.508,0,0,1,1.169-4.141,12.511,12.511,0,0,1,1.644-2.825,9.856,9.856,0,0,1,1.414-1.493l0.544-.464-0.4.59a9.436,9.436,0,0,0-.928,1.738,11.377,11.377,0,0,0-.765,2.885,15.418,15.418,0,0,0-.023,3.81,23.734,23.734,0,0,0,.925,4.406,37.064,37.064,0,0,0,1.82,4.707,51.766,51.766,0,0,0,2.555,4.778c0.96,1.582,1.986,3.153,3.1,4.673a85.157,85.157,0,0,0,7.05,8.491c1.2,1.287,2.4,2.492,3.563,3.609s2.275,2.151,3.328,3.079,2.031,1.76,2.9,2.492l2.226,1.789,2.149,1.688Z" transform="translate(2421.385 -996.04)"/><path class="cls-19" d="M-2159.326,1174.53" transform="translate(2421.385 -996.04)"/><path class="cls-19" d="M-2159.326,1182.953" transform="translate(2421.385 -996.04)"/><path class="cls-18" d="M-2397.091,1172.574l-0.888-7.031c-0.547-4.192-1.268-9.743-2.3-15.156-1.037-5.391-2.4-10.731-4.48-14.033a8.4,8.4,0,0,0-1.666-2,4.6,4.6,0,0,0-1.752-.973,3.079,3.079,0,0,0-.766-0.151,2.273,2.273,0,0,0-.594-0.023l-0.51.024,0.469-.211a2.491,2.491,0,0,1,.6-0.209,3.613,3.613,0,0,1,.864-0.158,5.713,5.713,0,0,1,2.433.319,10.385,10.385,0,0,1,2.825,1.524,29.092,29.092,0,0,1,5.471,5.553,84.863,84.863,0,0,1,4.991,7.155c3.147,4.983,5.951,10.072,8.042,13.854l3.438,6.285Z" transform="translate(2421.385 -996.04)"/><path class="cls-18" d="M-2185.3,1084.432l-3.229-6.308c-1.942-3.755-4.511-8.729-7.323-13.466-2.811-4.716-5.915-9.271-8.991-11.668a8.4,8.4,0,0,0-2.246-1.31,4.6,4.6,0,0,0-1.979-.318,3.081,3.081,0,0,0-.771.118,2.271,2.271,0,0,0-.567.18l-0.471.2,0.369-.358a2.491,2.491,0,0,1,.49-0.4,3.613,3.613,0,0,1,.759-0.443,5.714,5.714,0,0,1,2.4-.529,10.385,10.385,0,0,1,3.175.47,29.094,29.094,0,0,1,7.036,3.358,84.908,84.908,0,0,1,7.129,5.028c4.656,3.613,9.026,7.443,12.279,10.287l5.373,4.738Z" transform="translate(2421.385 -996.04)"/><path class="cls-18" d="M-2226.873,1065.4l-3.484,6.172c-2.063,3.69-4.8,8.575-7.2,13.533-2.385,4.945-4.475,10.045-4.779,13.934a8.4,8.4,0,0,0,.145,2.6,4.6,4.6,0,0,0,.825,1.827,3.082,3.082,0,0,0,.524.578,2.27,2.27,0,0,0,.463.373l0.423,0.285-0.5-.111a2.491,2.491,0,0,1-.6-0.189,3.61,3.61,0,0,1-.788-0.389,5.712,5.712,0,0,1-1.762-1.708,10.38,10.38,0,0,1-1.358-2.909,29.1,29.1,0,0,1-1.076-7.721,84.889,84.889,0,0,1,.265-8.72c0.448-5.877,1.235-11.633,1.814-15.916l0.992-7.1Z" transform="translate(2421.385 -996.04)"/><path class="cls-18" d="M-2315.549,1080.652l-3.78-5.995c-2.269-3.566-5.272-8.291-8.5-12.759-3.221-4.446-6.719-8.706-10-10.818a8.4,8.4,0,0,0-2.354-1.1,4.6,4.6,0,0,0-2-.14,3.079,3.079,0,0,0-.758.187,2.264,2.264,0,0,0-.548.23l-0.451.238,0.336-.39a2.487,2.487,0,0,1,.452-0.441,3.612,3.612,0,0,1,.716-0.509,5.714,5.714,0,0,1,2.34-.741,10.383,10.383,0,0,1,3.2.185,29.1,29.1,0,0,1,7.307,2.716,84.884,84.884,0,0,1,7.55,4.371c4.96,3.183,9.654,6.607,13.149,9.149l5.775,4.24Z" transform="translate(2421.385 -996.04)"/><path class="cls-18" d="M-2241.736,1075.673l-3.254,5.779c-0.927,1.7-1.984,3.721-3.022,5.891-0.507,1.085-1.039,2.216-1.515,3.371-0.509,1.158-.946,2.342-1.388,3.545l-0.619,1.814-0.549,1.829c-0.331,1.223-.652,2.444-0.9,3.649-0.277,1.2-.465,2.386-0.665,3.515-0.174,1.133-.344,2.213-0.463,3.218-0.263,2.008-.432,3.7-0.549,4.886l-0.181,1.865-0.546-1.794c-0.346-1.144-.839-2.778-1.374-4.773-0.28-.995-0.543-2.086-0.827-3.249-0.259-1.167-.554-2.405-0.774-3.712-0.251-1.3-.44-2.671-0.621-4.075l-0.218-2.132-0.142-2.164c-0.063-1.443-.118-2.909-0.09-4.328,0-1.435.06-2.827,0.12-4.184,0.143-2.7.367-5.19,0.593-7.328l0.839-6.951Z" transform="translate(2421.385 -996.04)"/><path class="cls-20" d="M-2289.654,1209.664a4.949,4.949,0,0,0-4.949,4.949,4.949,4.949,0,0,0,4.949,4.949,4.938,4.938,0,0,0,3.805-1.784" transform="translate(2421.385 -996.04)"/><path class="cls-21" d="M-2332.155,1055.913c13.371-5.161,27.042-10.269,39.006-10.973s31.126,0,31.126,0" transform="translate(2421.385 -996.04)"/><polyline class="cls-9" points="65.486 280.203 65.486 227.387 235.036 227.387 235.036 280.203"/></svg>