<svg id="Layer_1" data-name="Layer 1" xmlns="http://www.w3.org/2000/svg" viewBox="0 0 285.892 345.614"><defs><style>.cls-1,.cls-3{fill:#d9ad67;}.cls-2,.cls-4{fill:#eecc8a;}.cls-3,.cls-4,.cls-6,.cls-7,.cls-8,.cls-9{stroke:#9e7943;stroke-miterlimit:10;}.cls-3,.cls-4{stroke-width:5px;}.cls-5{fill:#432d14;}.cls-6{fill:#efedee;}.cls-6,.cls-8{stroke-width:4px;}.cls-7,.cls-8,.cls-9{fill:none;}.cls-7{stroke-width:2px;}.cls-9{stroke-width:6px;}.cls-10{fill:#131313;}.cls-11{fill:#171717;}</style></defs><title>william.mcbeej</title><polyline class="cls-1" points="142.729 36.575 142.576 336.099 177.702 326.098 240.222 255.172 260.096 171.919 246.131 79.798 142.577 24.341"/><polyline class="cls-2" points="142.687 36.608 142.84 336.133 107.714 326.132 45.194 255.206 25.32 171.953 39.285 79.832 142.839 24.375"/><path class="cls-3" d="M-1769.34,1149.5c6.09-2.909,13.344-3.088,17.456-1.027,4.292,2.15,6.55,7.27,6.662,13.661a40.249,40.249,0,0,1-4.563,18.276c-6.832,13.634-18.848,21.44-26.839,17.436" transform="translate(2028.609 -992.833)"/><path class="cls-4" d="M-2001.986,1149.592c-6.09-2.909-13.344-3.088-17.456-1.027-4.292,2.15-6.55,7.27-6.662,13.661a40.249,40.249,0,0,0,4.563,18.276c6.832,13.634,18.848,21.44,26.839,17.436" transform="translate(2028.609 -992.833)"/><path class="cls-1" d="M-1775.7,1198.311c-0.465-.207-1.046-0.427-1.68-0.678-3.17-1.256-7.65-3.265-5.48-8.035" transform="translate(2028.609 -992.833)"/><path class="cls-5" d="M-1911.279,1121.543c0.453,2.457-25.254-7.049-44.515-3.5s-22.536,16.012-22.99,13.554,1.257-16.026,20.518-19.579S-1911.732,1119.086-1911.279,1121.543Z" transform="translate(2028.609 -992.833)"/><path class="cls-5" d="M-1863.259,1121.543c-0.453,2.457,25.254-7.049,44.515-3.5s22.536,16.012,22.99,13.554-1.257-16.026-20.518-19.579S-1862.805,1119.086-1863.259,1121.543Z" transform="translate(2028.609 -992.833)"/><circle class="cls-6" cx="201.336" cy="157.353" r="21.261"/><circle class="cls-6" cx="84.08" cy="157.353" r="21.261"/><path class="cls-7" d="M-1906.914,1127.1a76.72,76.72,0,0,1,3.92,16.563l4.337,37.9" transform="translate(2028.609 -992.833)"/><path class="cls-7" d="M-1865.149,1127.1a76.72,76.72,0,0,0-3.92,16.563l-4.337,37.9" transform="translate(2028.609 -992.833)"/><path class="cls-5" d="M-1768.9,1150.311l-4.053,14.211-12.844-46.5-8.7-11.088h5.8l-5.8-7.044,4.143-5.8s-7.044-13.259-28.175-22.788-49.306-20.717-59.664-19.888-23.467-.829-28.721,8.287-12.3,20.717-21.413,24.031-27.023,4.558-35.264,8.287-15.7,13.63-16.942,15.93-14.916,54.921-14.916,54.921l-6.9-11.448,2.477-87.578s-4.342-14.087,6.876-25.274,23.557-2.072,29.4-10.773,13.719-30.661,27.806-33.561,10.923-.829,28.872,2.072,28.322-1.243,37.637,5.8,23.4,19.474,30.446,22.374,25.689,7.458,33.976,14.5c4.915,4.178,16,8.355,24.2,11.063a14.494,14.494,0,0,1,9.959,13.687Z" transform="translate(2028.609 -992.833)"/><path class="cls-8" d="M-1861.948,1185.7h0a13.741,13.741,0,0,1-13.741,13.741l-6.612,3.523a7.612,7.612,0,0,1-7.159,0l-6.612-3.523a13.741,13.741,0,0,1-13.741-13.741h0" transform="translate(2028.609 -992.833)"/><path class="cls-2" d="M-1940.126,1291.277c27.564,46.559,39.59,44.174,53.941,44.174,0.051,0,.1,0,0.153,0v-57.455Z" transform="translate(2028.609 -992.833)"/><path class="cls-1" d="M-1831.939,1291.277c-27.564,46.559-39.59,44.174-53.941,44.174-0.051,0-.1,0-0.153,0v-57.455Z" transform="translate(2028.609 -992.833)"/><path class="cls-7" d="M-1963.592,1205.156c-9.2,9.861-11.131,14.148-10.059,19.936s6,12.219,6,12.219" transform="translate(2028.609 -992.833)"/><path class="cls-7" d="M-1809.053,1205.156c9.2,9.861,11.131,14.148,10.059,19.936s-6,12.219-6,12.219" transform="translate(2028.609 -992.833)"/><path class="cls-6" d="M-1886.033,1287.007c42.354,0,76.689-46.656,76.689-69.671h-153.377C-1962.722,1240.352-1928.387,1287.007-1886.033,1287.007Z" transform="translate(2028.609 -992.833)"/><path class="cls-6" d="M-1995.944,1198.311" transform="translate(2028.609 -992.833)"/><path class="cls-9" d="M-1995.346,1198.06l11.931,49.979,60.5,68.77s1.156,1.42,1.719,2.078,2.274,2.589,2.593,2.933,1.783,1.869,1.924,2.011,1.951,1.889,2.164,2.083,3.041,2.595,3.371,2.846,2,1.448,2.23,1.6,1.662,1.047,1.94,1.205,1.857,0.991,2.1,1.106,1.444,0.643,1.656.727,1.911,0.686,2.113.747,1.208,0.344,1.506.415,1.153,0.258,1.428.309,1.437,0.238,1.715.272,1.882,0.193,2.1.207,1.509,0.082,1.887.092,6.432,0.005,6.432.005" transform="translate(2028.609 -992.833)"/><path class="cls-9" d="M-1776.2,1197.269L-1788.31,1248l-60.5,68.77s-1.156,1.42-1.719,2.078-2.274,2.589-2.593,2.933-1.783,1.869-1.924,2.011-1.951,1.889-2.164,2.083-3.041,2.595-3.371,2.846-2,1.448-2.23,1.6-1.662,1.047-1.94,1.205-1.857.991-2.1,1.106-1.444.643-1.656,0.727-1.911.686-2.113,0.747-1.208.344-1.506,0.415-1.153.258-1.428,0.309-1.437.238-1.715,0.272-1.882.193-2.1,0.207-1.509.082-1.887,0.092-6.773.042-6.773,0.042" transform="translate(2028.609 -992.833)"/><path class="cls-7" d="M-2013.441,1153.252c-8.131-.717-8.167,15.8-4.852,23.262,2.854,6.422,9.764,12.556,16.269,13.13,5.2,0.459,3.265-7.278,2.968-12.517-0.236-4.173-2.71-7.836-6.873-8.2" transform="translate(2028.609 -992.833)"/><path class="cls-7" d="M-1758.175,1155c8.131-.717,8.167,15.8,4.852,23.262-2.854,6.422-9.764,12.556-16.269,13.13-5.2.459-3.265-7.278-2.968-12.517,0.236-4.173,2.71-7.836,6.873-8.2" transform="translate(2028.609 -992.833)"/><polygon class="cls-10" points="78.344 254.161 127.437 255.161 78.344 256.161 78.344 254.161"/><path class="cls-11" d="M-1961.109,1224.935c0.1,0.378.107,0.565,0.369,1.393,0.075,0.237.228,0.8,0.313,1.056,0.068,0.209.169,0.528,0.241,0.749,0.092,0.28.179,0.537,0.277,0.831,0.074,0.223.173,0.487,0.25,0.715s0.2,0.54.286,0.783c0.076,0.223.169,0.45,0.257,0.673,0.024,0.062.045,0.108,0.066,0.169,0.1,0.291.214,0.593,0.316,0.878,0.125,0.35.249,0.693,0.371,1.024s0.245,0.661.363,0.968c0.09,0.235.178,0.461,0.263,0.673q0.1,0.239.185,0.456c0.074,0.179.145,0.345,0.212,0.5,0.4,0.9.67,1.313,0.693,0.84,0.1-2.031.772-18.715,0.772-18.715h-6.224v1.592a22.6,22.6,0,0,0,.434,2.967A18.906,18.906,0,0,0-1961.109,1224.935Z" transform="translate(2028.609 -992.833)"/><path class="cls-11" d="M-1810.931,1224.822c-0.1.378-.107,0.565-0.369,1.393-0.075.237-.228,0.8-0.313,1.056-0.068.209-.169,0.528-0.241,0.749-0.092.28-.179,0.537-0.277,0.831-0.074.223-.173,0.487-0.25,0.715s-0.2.54-.286,0.783c-0.076.223-.169,0.45-0.257,0.673-0.024.062-.045,0.108-0.066,0.169-0.1.291-.214,0.593-0.316,0.878-0.125.35-.249,0.693-0.371,1.024s-0.245.661-.363,0.968c-0.09.235-.178,0.461-0.263,0.673q-0.1.239-.185,0.456c-0.074.179-.145,0.345-0.212,0.5-0.4.9-.67,1.313-0.693,0.84-0.1-2.031-.772-18.715-0.772-18.715h6.224v1.592a22.6,22.6,0,0,1-.434,2.967A18.906,18.906,0,0,1-1810.931,1224.822Z" transform="translate(2028.609 -992.833)"/></svg>